# xmcd
#
# Track frame offsets: 
#        150
#        24429
#        52163
#        76900
#        100742
#        121701
#        143186
#        168344
#        193471
#        215616
#
# Disc length: 3169 seconds
#
# Revision: 0
# Processed by: cddbd v1.5.2PL0 Copyright (c) Steve Scherf et al.
# Submitted via: ExactAudioCopy v1.0b3
#
DISCID=890c5f0a
DTITLE=Various Artist - Ra Di Mang Theo Que Huong 1
DYEAR=1999
DGENRE=
TTITLE0=Thai Chau, Thanh Vy - Mua le
TTITLE1=Huong Lan - Dem ru dieu nho
TTITLE2=Manh Hung - Que huong bo lai
TTITLE3=Phuong Hong Que - Chieu thuong do thi
TTITLE4=Hoai Nam - Thuo ban dau
TTITLE5=Thanh Tuyen - Tra loi thu em
TTITLE6=Thanh Vy - Duong xua loi cu
TTITLE7=Yen Vi - Doi mat que huong
TTITLE8=Kha Tu - Giot buon khong ten
TTITLE9=Phi Nhung - Net buon thoi chien
EXTD=
EXTT0=
EXTT1=
EXTT2=
EXTT3=
EXTT4=
EXTT5=
EXTT6=
EXTT7=
EXTT8=
EXTT9=
PLAYORDER=
